<svg width="1540" height="1024" viewBox="0 0 1540 1024" fill="none" xmlns="http://www.w3.org/2000/svg">
<g clip-path="url(#clip0)">
<path fill-rule="evenodd" clip-rule="evenodd" d="M171.823 616.578C190.06 724.955 128.321 830.467 24.1098 869.013C-219.204 959.011 -493.808 963.22 -748.382 868.245C-852.433 829.426 -914.187 723.94 -895.766 615.608C-874.888 492.844 -831.843 371.696 -765.122 257.673C-695.611 138.888 -606.478 38.2082 -504.037 -42.6955C-417.742 -110.856 -295.311 -109.555 -210.225 -39.9848C-2.32965 130.005 129.547 365.354 171.823 616.578Z" stroke="url(#paint0_radial)" stroke-width="300"/>
<g clip-path="url(#clip1)">
<path fill-rule="evenodd" clip-rule="evenodd" d="M1463.16 280.516C1354.81 298.515 1249.33 237.582 1210.8 134.733C1120.83 -105.401 1116.62 -376.417 1211.57 -627.664C1250.38 -730.356 1355.83 -791.303 1464.13 -773.122C1586.86 -752.517 1707.97 -710.035 1821.96 -644.186C1940.71 -575.583 2041.36 -487.615 2122.24 -386.513C2190.38 -301.345 2189.08 -180.514 2119.53 -96.54C1949.59 108.639 1714.31 238.792 1463.16 280.516Z" stroke="url(#paint1_radial)" stroke-width="300"/>
</g>
<g clip-path="url(#clip2)">
<path fill-rule="evenodd" clip-rule="evenodd" d="M1014.48 1074.16C996.485 965.815 1057.42 860.334 1160.27 821.8C1400.4 731.828 1671.42 727.62 1922.66 822.567C2025.36 861.375 2086.3 966.83 2068.12 1075.13C2047.52 1197.86 2005.04 1318.97 1939.19 1432.96C1870.58 1551.71 1782.61 1652.36 1681.51 1733.24C1596.34 1801.38 1475.51 1800.08 1391.54 1730.53C1186.36 1560.59 1056.21 1325.31 1014.48 1074.16Z" stroke="url(#paint2_radial)" stroke-width="300"/>
</g>
</g>
<defs>
<radialGradient id="paint0_radial" cx="0" cy="0" r="1" gradientUnits="userSpaceOnUse" gradientTransform="translate(-309.251 510.993) rotate(-150.304) scale(521.427 530.954)">
<stop stop-color="#FF5F6D"/>
<stop offset="1" stop-color="#FFA185"/>
</radialGradient>
<radialGradient id="paint1_radial" cx="0" cy="0" r="1" gradientUnits="userSpaceOnUse" gradientTransform="translate(1568.71 -194.272) rotate(-59.9858) scale(516.256 529.109)">
<stop stop-color="#FF5F6D"/>
<stop offset="1" stop-color="#FFA185"/>
</radialGradient>
<radialGradient id="paint2_radial" cx="0" cy="0" r="1" gradientUnits="userSpaceOnUse" gradientTransform="translate(1489.27 1179.71) rotate(30.0142) scale(516.256 529.109)">
<stop stop-color="#FFC95F"/>
<stop offset="1" stop-color="#FFCE85"/>
</radialGradient>
<clipPath id="clip0">
<rect width="1540" height="1024" fill="white"/>
</clipPath>
<clipPath id="clip1">
<rect width="1168" height="931" fill="white" transform="translate(647 -401)"/>
</clipPath>
<clipPath id="clip2">
<rect width="1168" height="931" fill="white" transform="translate(1696 258) rotate(90)"/>
</clipPath>
</defs>
</svg>
