<svg width="1540" height="1024" viewBox="0 0 1540 1024" fill="none" xmlns="http://www.w3.org/2000/svg">
<g clip-path="url(#clip0)">
<path fill-rule="evenodd" clip-rule="evenodd" d="M251.871 633.84C271.12 742.185 205.956 847.666 95.9645 886.2C-160.845 976.172 -450.682 980.38 -719.377 885.433C-829.2 846.625 -894.38 741.17 -874.936 632.87C-852.9 510.142 -807.468 389.03 -737.046 275.04C-663.679 156.29 -569.602 55.64 -461.479 -25.24C-370.396 -93.38 -241.175 -92.08 -151.369 -22.53C68.0585 147.41 207.25 382.69 251.871 633.84Z" stroke="url(#paint0_radial)" stroke-width="300"/>
<g clip-path="url(#clip1)">
<path fill-rule="evenodd" clip-rule="evenodd" d="M1463.16 280.516C1354.81 298.515 1249.33 237.582 1210.8 134.733C1120.83 -105.401 1116.62 -376.417 1211.57 -627.664C1250.38 -730.356 1355.83 -791.303 1464.13 -773.122C1586.86 -752.517 1707.97 -710.035 1821.96 -644.186C1940.71 -575.583 2041.36 -487.615 2122.24 -386.513C2190.38 -301.345 2189.08 -180.514 2119.53 -96.54C1949.59 108.639 1714.31 238.792 1463.16 280.516Z" stroke="url(#paint1_radial)" stroke-width="300"/>
</g>
<g clip-path="url(#clip2)">
<path fill-rule="evenodd" clip-rule="evenodd" d="M1255.48 1187.16C1237.49 1078.81 1298.42 973.334 1401.27 934.8C1641.4 844.828 1912.42 840.62 2163.66 935.567C2266.36 974.375 2327.3 1079.83 2309.12 1188.13C2288.52 1310.86 2246.04 1431.97 2180.19 1545.96C2111.58 1664.71 2023.61 1765.36 1922.51 1846.24C1837.34 1914.38 1716.51 1913.08 1632.54 1843.53C1427.36 1673.59 1297.21 1438.31 1255.48 1187.16Z" stroke="url(#paint2_radial)" stroke-width="300"/>
</g>
</g>
<defs>
<radialGradient id="paint0_radial" cx="0" cy="0" r="1" gradientUnits="userSpaceOnUse" gradientTransform="translate(-255.888 528.286) rotate(-151.623) scale(543.359 537.628)">
<stop stop-color="#FF5F6D"/>
<stop offset="1" stop-color="#FFA185"/>
</radialGradient>
<radialGradient id="paint1_radial" cx="0" cy="0" r="1" gradientUnits="userSpaceOnUse" gradientTransform="translate(1568.71 -194.272) rotate(-59.9858) scale(516.256 529.109)">
<stop stop-color="#FF5F6D"/>
<stop offset="1" stop-color="#FFA185"/>
</radialGradient>
<radialGradient id="paint2_radial" cx="0" cy="0" r="1" gradientUnits="userSpaceOnUse" gradientTransform="translate(1730.27 1292.71) rotate(30.0142) scale(516.256 529.109)">
<stop stop-color="#FFC95F"/>
<stop offset="1" stop-color="#FFCE85"/>
</radialGradient>
<clipPath id="clip0">
<rect width="1540" height="1024" fill="white"/>
</clipPath>
<clipPath id="clip1">
<rect width="1168" height="931" fill="white" transform="translate(647 -401)"/>
</clipPath>
<clipPath id="clip2">
<rect width="1168" height="931" fill="white" transform="translate(1937 371) rotate(90)"/>
</clipPath>
</defs>
</svg>
