<svg width="1324" height="105" viewBox="0 0 1324 105" fill="none" xmlns="http://www.w3.org/2000/svg">
<path d="M37.1953 57.6348L37.4733 56.6742L37.4716 56.6737L37.1953 57.6348ZM12.5859 45.7402L11.9055 46.4731L11.9123 46.4793L12.5859 45.7402ZM14.2949 8.82617L14.9279 9.60038L14.9285 9.59988L14.2949 8.82617ZM57.0195 5.06641L56.5754 5.96236L56.5784 5.96385L57.0195 5.06641ZM69.4609 16.0039L68.6139 16.5354L68.6176 16.5413L69.4609 16.0039ZM73.9043 31.248V32.248H74.9043V31.248H73.9043ZM60.7109 31.248H59.7109V32.248H60.7109V31.248ZM54.9688 17.0977L54.2978 17.8392L54.3027 17.8436L54.9688 17.0977ZM23.5918 16.209L24.2092 16.9956L24.2105 16.9946L23.5918 16.209ZM23.3184 38.3574L22.6812 39.1282L22.6868 39.1328L22.6924 39.1373L23.3184 38.3574ZM40.8867 46.0137L40.6155 46.9762L40.6169 46.9766L40.8867 46.0137ZM60.3008 53.7383L59.7813 54.5929L59.7912 54.5987L60.3008 53.7383ZM70.6914 63.5137L69.833 64.0266L69.8376 64.0343L70.6914 63.5137ZM64.6758 96.1211L65.2849 96.9142L65.2885 96.9114L64.6758 96.1211ZM20.3105 99.4707L19.9031 100.384L19.909 100.387L20.3105 99.4707ZM6.57031 88.6699L5.75106 89.2434L5.75493 89.2488L6.57031 88.6699ZM1.78516 73.1523V72.1523H0.785156V73.1523H1.78516ZM14.9785 73.1523H15.9785V72.1523H14.9785V73.1523ZM21.6094 87.4395L20.9876 88.2227L20.9966 88.2297L21.6094 87.4395ZM55.7891 65.5645L55.1708 66.3504L55.1773 66.3555L55.7891 65.5645ZM37.4716 56.6737C26.275 53.4552 18.2433 49.5439 13.2596 45.0012L11.9123 46.4793C17.228 51.3246 25.6026 55.343 36.919 58.5958L37.4716 56.6737ZM13.2664 45.0074C8.36471 40.4559 5.92969 34.8875 5.92969 28.2402H3.92969C3.92969 35.4471 6.59883 41.5454 11.9055 46.473L13.2664 45.0074ZM5.92969 28.2402C5.92969 20.7116 8.90894 14.521 14.9279 9.60038L13.662 8.05196C7.19393 13.3397 3.92969 20.0918 3.92969 28.2402H5.92969ZM14.9285 9.59988C21.0001 4.62819 28.9169 2.10156 38.7676 2.10156V0.101562C28.5661 0.101562 20.1679 2.72467 13.6614 8.05246L14.9285 9.59988ZM38.7676 2.10156C45.4724 2.10156 51.4006 3.39708 56.5754 5.96236L57.4637 4.17045C51.9744 1.44927 45.7346 0.101562 38.7676 0.101562V2.10156ZM56.5784 5.96385C61.8052 8.53296 65.8049 12.0586 68.6139 16.5354L70.308 15.4724C67.2836 10.6523 62.9891 6.88631 57.4607 4.16896L56.5784 5.96385ZM68.6176 16.5413C71.4775 21.0291 72.9043 25.924 72.9043 31.248H74.9043C74.9043 25.5434 73.3689 20.2756 70.3043 15.4665L68.6176 16.5413ZM73.9043 30.248H60.7109V32.248H73.9043V30.248ZM61.7109 31.248C61.7109 25.0014 59.7125 19.9926 55.6348 16.3517L54.3027 17.8436C57.8812 21.0387 59.7109 25.4634 59.7109 31.248H61.7109ZM55.6397 16.3561C51.5714 12.6753 45.9001 10.9023 38.7676 10.9023V12.9023C45.5804 12.9023 50.7098 14.5929 54.2978 17.8392L55.6397 16.3561ZM38.7676 10.9023C32.1588 10.9023 26.8533 12.3677 22.9731 15.4233L24.2105 16.9946C27.622 14.308 32.4336 12.9023 38.7676 12.9023V10.9023ZM22.9744 15.4223C19.1049 18.4591 17.1914 22.7065 17.1914 28.0352H19.1914C19.1914 23.2467 20.8781 19.6099 24.2092 16.9956L22.9744 15.4223ZM17.1914 28.0352C17.1914 32.4196 19.0578 36.1328 22.6812 39.1282L23.9555 37.5867C20.743 34.931 19.1914 31.7627 19.1914 28.0352H17.1914ZM22.6924 39.1373C26.3183 42.0475 32.3353 44.6431 40.6155 46.9762L41.1579 45.0512C32.9407 42.7358 27.2455 40.2272 23.9443 37.5776L22.6924 39.1373ZM40.6169 46.9766C48.8681 49.2887 55.2424 51.8338 59.7814 54.5928L60.8202 52.8838C56.0623 49.9917 49.4939 47.387 41.1565 45.0508L40.6169 46.9766ZM59.7912 54.5987C64.3775 57.3148 67.7044 60.4645 69.833 64.0266L71.5498 63.0007C69.2122 59.0889 65.6121 55.7216 60.8104 52.8779L59.7912 54.5987ZM69.8376 64.0343C72.0065 67.5913 73.1094 71.803 73.1094 76.707H75.1094C75.1094 71.4939 73.9336 66.91 71.5452 62.9931L69.8376 64.0343ZM73.1094 76.707C73.1094 84.4693 70.1039 90.6469 64.063 95.3308L65.2885 96.9114C71.8258 91.8427 75.1094 85.0776 75.1094 76.707H73.1094ZM64.0666 95.328C58.0019 99.9865 49.8302 102.367 39.4512 102.367V104.367C50.1269 104.367 58.7716 101.917 65.2849 96.9141L64.0666 95.328ZM39.4512 102.367C32.7455 102.367 26.5029 101.094 20.7121 98.5549L19.909 100.387C25.9672 103.043 32.485 104.367 39.4512 104.367V102.367ZM20.718 98.5575C14.9303 95.9753 10.5021 92.4803 7.3857 88.091L5.75493 89.2488C9.10988 93.9741 13.8418 97.6797 19.9031 100.384L20.718 98.5575ZM7.38954 88.0965C4.32206 83.7143 2.78516 78.7437 2.78516 73.1523H0.785156C0.785156 79.1365 2.43836 84.5109 5.75108 89.2434L7.38954 88.0965ZM1.78516 74.1523H14.9785V72.1523H1.78516V74.1523ZM13.9785 73.1523C13.9785 79.4499 16.3105 84.5099 20.9876 88.2227L22.2311 86.6562C18.0671 83.3508 15.9785 78.886 15.9785 73.1523H13.9785ZM20.9966 88.2297C25.6863 91.8666 31.8708 93.6348 39.4512 93.6348V91.6348C32.1748 91.6348 26.4648 89.9394 22.2222 86.6492L20.9966 88.2297ZM39.4512 93.6348C46.4951 93.6348 52.0538 92.201 55.9867 89.1906L54.7711 87.6024C51.3212 90.243 46.2614 91.6348 39.4512 91.6348V93.6348ZM55.9867 89.1906C59.9391 86.1653 61.916 82.0136 61.916 76.8438H59.916C59.916 81.4265 58.2015 84.9766 54.7711 87.6024L55.9867 89.1906ZM61.916 76.8438C61.916 71.7032 60.0974 67.6321 56.4008 64.7734L55.1773 66.3555C58.3166 68.7832 59.916 72.2317 59.916 76.8438H61.916ZM56.4073 64.7785C52.8263 61.9614 46.4653 59.2759 37.4733 56.6742L36.9174 58.5954C45.881 61.1889 51.9159 63.7899 55.1708 66.3504L56.4073 64.7785ZM203.062 2.46875H204.062V1.46875H203.062V2.46875ZM203.062 70.1445L204.062 70.1494V70.1445H203.062ZM194.176 93.1816L193.463 92.48L193.461 92.4828L194.176 93.1816ZM170.387 103.23L170.426 104.23L170.443 104.229L170.459 104.228L170.387 103.23ZM166.9 103.367V104.367H166.92L166.94 104.366L166.9 103.367ZM131.012 70.2812L130.012 70.2813L130.012 70.2901L131.012 70.2812ZM131.012 2.46875V1.46875H130.012V2.46875H131.012ZM144 2.46875H145V1.46875H144V2.46875ZM149.947 86.6875L149.236 87.3906L149.24 87.3946L149.947 86.6875ZM183.922 86.6875L183.215 85.9804L183.211 85.9845L183.922 86.6875ZM189.869 2.46875V1.46875H188.869V2.46875H189.869ZM202.062 2.46875V70.1445H204.062V2.46875H202.062ZM202.063 70.1397C202.018 79.301 199.136 86.7188 193.463 92.48L194.888 93.8833C200.973 87.7043 204.016 79.7641 204.062 70.1494L202.063 70.1397ZM193.461 92.4828C187.831 98.2441 180.149 101.518 170.314 102.233L170.459 104.228C180.677 103.485 188.854 100.059 194.891 93.8805L193.461 92.4828ZM170.348 102.231L166.861 102.368L166.94 104.366L170.426 104.23L170.348 102.231ZM166.9 102.367C156.193 102.367 147.773 99.482 141.528 93.8087L140.183 95.289C146.881 101.373 155.824 104.367 166.9 104.367V102.367ZM141.528 93.8087C135.3 88.1507 132.101 80.3472 132.012 70.2724L130.012 70.2901C130.105 80.8142 133.468 89.1891 140.183 95.289L141.528 93.8087ZM132.012 70.2812V2.46875H130.012V70.2812H132.012ZM131.012 3.46875H144V1.46875H131.012V3.46875ZM143 2.46875V69.8711H145V2.46875H143ZM143 69.8711C143 77.2586 145.039 83.1449 149.236 87.3906L150.658 85.9844C146.926 82.2093 145 76.8847 145 69.8711H143ZM149.24 87.3946C153.445 91.5996 159.383 93.6348 166.9 93.6348V91.6348C159.743 91.6348 154.379 89.7051 150.654 85.9804L149.24 87.3946ZM166.9 93.6348C174.504 93.6348 180.47 91.6021 184.633 87.3905L183.211 85.9845C179.535 89.7026 174.154 91.6348 166.9 91.6348V93.6348ZM184.629 87.3946C188.831 83.193 190.869 77.3263 190.869 69.9395H188.869C188.869 76.9536 186.943 82.2523 183.215 85.9804L184.629 87.3946ZM190.869 69.9395V2.46875H188.869V69.9395H190.869ZM189.869 3.46875H203.062V1.46875H189.869V3.46875ZM278.9 63.0352V62.0352H277.9V63.0352H278.9ZM278.9 102V103H279.9V102H278.9ZM265.775 102H264.775V103H265.775V102ZM265.775 2.46875V1.46875H264.775V2.46875H265.775ZM328.051 10.8086L327.38 11.5505L327.383 11.553L328.051 10.8086ZM328.256 55.2422L328.909 55.999L328.91 55.9986L328.256 55.2422ZM278.9 52.3027H277.9V53.3027H278.9V52.3027ZM318.617 47.3809L319.277 48.1323L319.282 48.1278L318.617 47.3809ZM318.617 18.8066L319.306 18.0821L318.617 18.8066ZM303.236 13.2695L303.257 12.2698L303.247 12.2695H303.236V13.2695ZM278.9 13.2695V12.2695H277.9V13.2695H278.9ZM277.9 63.0352V102H279.9V63.0352H277.9ZM278.9 101H265.775V103H278.9V101ZM266.775 102V2.46875H264.775V102H266.775ZM265.775 3.46875H302.484V1.46875H265.775V3.46875ZM302.484 3.46875C313.208 3.46875 321.463 6.20325 327.38 11.5505L328.721 10.0667C322.334 4.29415 313.545 1.46875 302.484 1.46875V3.46875ZM327.383 11.553C333.347 16.9029 336.348 23.9808 336.348 32.8887H338.348C338.348 23.4763 335.15 15.834 328.719 10.0642L327.383 11.553ZM336.348 32.8887C336.348 42.3251 333.398 49.4738 327.602 54.4857L328.91 55.9986C335.236 50.5288 338.348 42.7751 338.348 32.8887H336.348ZM327.602 54.4854C321.831 59.4695 313.463 62.0352 302.348 62.0352V64.0352C313.745 64.0352 322.649 61.4055 328.909 55.999L327.602 54.4854ZM302.348 62.0352H278.9V64.0352H302.348V62.0352ZM278.9 53.3027H302.484V51.3027H278.9V53.3027ZM302.484 53.3027C309.646 53.3027 315.295 51.6289 319.277 48.1323L317.957 46.6294C314.466 49.6953 309.359 51.3027 302.484 51.3027V53.3027ZM319.282 48.1278C323.283 44.5658 325.223 39.4781 325.223 33.0254H323.223C323.223 39.0597 321.425 43.5422 317.952 46.634L319.282 48.1278ZM325.223 33.0254C325.223 26.8716 323.272 21.8542 319.306 18.0821L317.928 19.5312C321.436 22.8685 323.223 27.3303 323.223 33.0254H325.223ZM319.306 18.0821C315.345 14.3137 309.955 12.4103 303.257 12.2698L303.215 14.2693C309.551 14.4022 314.416 16.1902 317.928 19.5312L319.306 18.0821ZM303.236 12.2695H278.9V14.2695H303.236V12.2695ZM277.9 13.2695V52.3027H279.9V13.2695H277.9ZM452.355 55.9941V56.9941H453.355V55.9941H452.355ZM409.221 55.9941V54.9941H408.221V55.9941H409.221ZM409.221 91.2676H408.221V92.2676H409.221V91.2676ZM459.328 91.2676H460.328V90.2676H459.328V91.2676ZM459.328 102V103H460.328V102H459.328ZM396.096 102H395.096V103H396.096V102ZM396.096 2.46875V1.46875H395.096V2.46875H396.096ZM458.645 2.46875H459.645V1.46875H458.645V2.46875ZM458.645 13.2695V14.2695H459.645V13.2695H458.645ZM409.221 13.2695V12.2695H408.221V13.2695H409.221ZM409.221 45.2617H408.221V46.2617H409.221V45.2617ZM452.355 45.2617H453.355V44.2617H452.355V45.2617ZM452.355 54.9941H409.221V56.9941H452.355V54.9941ZM408.221 55.9941V91.2676H410.221V55.9941H408.221ZM409.221 92.2676H459.328V90.2676H409.221V92.2676ZM458.328 91.2676V102H460.328V91.2676H458.328ZM459.328 101H396.096V103H459.328V101ZM397.096 102V2.46875H395.096V102H397.096ZM396.096 3.46875H458.645V1.46875H396.096V3.46875ZM457.645 2.46875V13.2695H459.645V2.46875H457.645ZM458.645 12.2695H409.221V14.2695H458.645V12.2695ZM408.221 13.2695V45.2617H410.221V13.2695H408.221ZM409.221 46.2617H452.355V44.2617H409.221V46.2617ZM451.355 45.2617V55.9941H453.355V45.2617H451.355ZM554.17 61.7363L555.051 61.2636L554.768 60.7363H554.17V61.7363ZM530.791 61.7363V60.7363H529.791V61.7363H530.791ZM530.791 102V103H531.791V102H530.791ZM517.598 102H516.598V103H517.598V102ZM517.598 2.46875V1.46875H516.598V2.46875H517.598ZM576.387 10.125L575.74 10.8875L575.743 10.8899L576.387 10.125ZM580.42 48.6113L579.613 48.0203L579.609 48.0255L580.42 48.6113ZM566.475 58.9336L566.118 57.9993L565.042 58.41L565.6 59.4178L566.475 58.9336ZM589.854 101.18H590.854V100.921L590.728 100.695L589.854 101.18ZM589.854 102V103H590.854V102H589.854ZM575.771 102L574.89 102.473L575.173 103H575.771V102ZM530.791 51.0039H529.791V52.0039H530.791V51.0039ZM566.475 45.9453L565.818 45.1911L565.814 45.195L566.475 45.9453ZM566.748 18.2598L566.079 19.0031L566.084 19.0072L566.748 18.2598ZM550.889 13.2695L550.895 12.2695H550.889V13.2695ZM530.791 13.2695V12.2695H529.791V13.2695H530.791ZM554.17 60.7363H530.791V62.7363H554.17V60.7363ZM529.791 61.7363V102H531.791V61.7363H529.791ZM530.791 101H517.598V103H530.791V101ZM518.598 102V2.46875H516.598V102H518.598ZM517.598 3.46875H550.547V1.46875H517.598V3.46875ZM550.547 3.46875C561.619 3.46875 569.968 5.99013 575.74 10.8875L577.034 9.36249C570.774 4.05154 561.896 1.46875 550.547 1.46875V3.46875ZM575.743 10.8899C581.527 15.7609 584.479 22.8782 584.479 32.4102H586.479C586.479 22.4369 583.369 14.6974 577.031 9.36009L575.743 10.8899ZM584.479 32.4102C584.479 38.4149 582.849 43.6039 579.613 48.0203L581.227 49.2023C584.736 44.4131 586.479 38.8013 586.479 32.4102H584.479ZM579.609 48.0255C576.411 52.4513 571.93 55.7812 566.118 57.9993L566.831 59.8679C572.96 57.5287 577.776 53.9771 581.23 49.1971L579.609 48.0255ZM565.6 59.4178L588.979 101.664L590.728 100.695L567.35 58.4494L565.6 59.4178ZM588.854 101.18V102H590.854V101.18H588.854ZM589.854 101H575.771V103H589.854V101ZM576.653 101.527L555.051 61.2636L553.289 62.2091L574.89 102.473L576.653 101.527ZM530.791 52.0039H550.957V50.0039H530.791V52.0039ZM550.957 52.0039C557.648 52.0039 563.079 50.2696 567.136 46.6957L565.814 45.195C562.214 48.3658 557.3 50.0039 550.957 50.0039V52.0039ZM567.131 46.6995C571.247 43.1168 573.285 38.3178 573.285 32.4102H571.285C571.285 37.8046 569.45 42.029 565.818 45.1911L567.131 46.6995ZM573.285 32.4102C573.285 26.0478 571.368 21.0284 567.412 17.5124L566.084 19.0072C569.511 22.0536 571.285 26.4678 571.285 32.4102H573.285ZM567.417 17.5165C563.526 14.0149 557.967 12.3161 550.895 12.2696L550.882 14.2695C557.665 14.3141 562.678 15.9421 566.079 19.0031L567.417 17.5165ZM550.889 12.2695H530.791V14.2695H550.889V12.2695ZM529.791 13.2695V51.0039H531.791V13.2695H529.791ZM645.936 102H644.936V103H645.936V102ZM645.936 2.46875V1.46875H644.936V2.46875H645.936ZM702.811 9.16797L702.175 9.93991L702.178 9.9425L702.811 9.16797ZM707.049 41.3652L707.851 41.9619L707.855 41.957L707.049 41.3652ZM696.248 49.6367L695.853 48.718L693.251 49.8369L695.979 50.5998L696.248 49.6367ZM708.963 58.25L708.156 58.8403L708.163 58.85L708.963 58.25ZM704.998 94.3438L704.337 93.5937L704.998 94.3438ZM659.061 55.4473V54.4473H658.061V55.4473H659.061ZM659.061 91.2676H658.061V92.2676H659.061V91.2676ZM695.154 86.5508L695.822 87.2955L695.822 87.295L695.154 86.5508ZM659.061 44.9199H658.061V45.9199H659.061V44.9199ZM692.625 40.6133L691.987 39.8434L691.982 39.8476L692.625 40.6133ZM693.035 17.0293L692.417 17.8156L692.424 17.8211L693.035 17.0293ZM659.061 13.2695V12.2695H658.061V13.2695H659.061ZM646.936 102V2.46875H644.936V102H646.936ZM645.936 3.46875H678.475V1.46875H645.936V3.46875ZM678.475 3.46875C689.162 3.46875 697.005 5.68221 702.175 9.9399L703.446 8.39604C697.77 3.72144 689.389 1.46875 678.475 1.46875V3.46875ZM702.178 9.9425C707.359 14.174 710.014 20.4637 710.014 28.9922H712.014C712.014 20.0206 709.199 13.0942 703.443 8.39344L702.178 9.9425ZM710.014 28.9922C710.014 33.437 708.755 37.3521 706.243 40.7734L707.855 41.957C710.63 38.1779 712.014 33.8442 712.014 28.9922H710.014ZM706.246 40.7685C703.72 44.1655 700.268 46.8195 695.853 48.718L696.643 50.5554C701.342 48.5347 705.091 45.6743 707.851 41.9619L706.246 40.7685ZM695.979 50.5998C701.155 52.0474 705.198 54.795 708.156 58.8402L709.77 57.6598C706.53 53.2284 702.096 50.2339 696.517 48.6737L695.979 50.5998ZM708.163 58.85C711.163 62.8501 712.68 67.6464 712.68 73.2891H714.68C714.68 67.2651 713.052 62.0353 709.763 57.65L708.163 58.85ZM712.68 73.2891C712.68 81.9843 709.874 88.7101 704.337 93.5937L705.659 95.0938C711.697 89.7691 714.68 82.4584 714.68 73.2891H712.68ZM704.337 93.5937C698.79 98.4856 690.877 101 680.457 101V103C691.183 103 699.631 100.41 705.659 95.0938L704.337 93.5937ZM680.457 101H645.936V103H680.457V101ZM658.061 55.4473V91.2676H660.061V55.4473H658.061ZM659.061 92.2676H680.73V90.2676H659.061V92.2676ZM680.73 92.2676C687.009 92.2676 692.08 90.6483 695.822 87.2955L694.487 85.806C691.21 88.7423 686.666 90.2676 680.73 90.2676V92.2676ZM695.822 87.295C699.624 83.8835 701.486 79.2184 701.486 73.4258H699.486C699.486 78.7529 697.794 82.8378 694.486 85.8065L695.822 87.295ZM701.486 73.4258C701.486 67.2562 699.805 62.4516 696.276 59.2058C692.762 55.9746 687.587 54.4473 680.936 54.4473V56.4473C687.318 56.4473 691.919 57.9164 694.922 60.678C697.909 63.425 699.486 67.6096 699.486 73.4258H701.486ZM680.936 54.4473H659.061V56.4473H680.936V54.4473ZM659.061 45.9199H678.885V43.9199H659.061V45.9199ZM678.885 45.9199C684.794 45.9199 689.624 44.4404 693.268 41.379L691.982 39.8476C688.79 42.5283 684.46 43.9199 678.885 43.9199V45.9199ZM693.263 41.3832C696.979 38.3027 698.82 34.1116 698.82 28.9238H696.82C696.82 33.5798 695.198 37.1817 691.987 39.8434L693.263 41.3832ZM698.82 28.9238C698.82 23.2638 697.162 18.9501 693.646 16.2375L692.424 17.8211C695.288 20.0304 696.82 23.6463 696.82 28.9238H698.82ZM693.653 16.243C690.208 13.5362 685.089 12.2695 678.475 12.2695V14.2695C684.894 14.2695 689.482 15.5093 692.417 17.8156L693.653 16.243ZM678.475 12.2695H659.061V14.2695H678.475V12.2695ZM658.061 13.2695V44.9199H660.061V13.2695H658.061ZM831.422 55.9941V56.9941H832.422V55.9941H831.422ZM788.287 55.9941V54.9941H787.287V55.9941H788.287ZM788.287 91.2676H787.287V92.2676H788.287V91.2676ZM838.395 91.2676H839.395V90.2676H838.395V91.2676ZM838.395 102V103H839.395V102H838.395ZM775.162 102H774.162V103H775.162V102ZM775.162 2.46875V1.46875H774.162V2.46875H775.162ZM837.711 2.46875H838.711V1.46875H837.711V2.46875ZM837.711 13.2695V14.2695H838.711V13.2695H837.711ZM788.287 13.2695V12.2695H787.287V13.2695H788.287ZM788.287 45.2617H787.287V46.2617H788.287V45.2617ZM831.422 45.2617H832.422V44.2617H831.422V45.2617ZM831.422 54.9941H788.287V56.9941H831.422V54.9941ZM787.287 55.9941V91.2676H789.287V55.9941H787.287ZM788.287 92.2676H838.395V90.2676H788.287V92.2676ZM837.395 91.2676V102H839.395V91.2676H837.395ZM838.395 101H775.162V103H838.395V101ZM776.162 102V2.46875H774.162V102H776.162ZM775.162 3.46875H837.711V1.46875H775.162V3.46875ZM836.711 2.46875V13.2695H838.711V2.46875H836.711ZM837.711 12.2695H788.287V14.2695H837.711V12.2695ZM787.287 13.2695V45.2617H789.287V13.2695H787.287ZM788.287 46.2617H831.422V44.2617H788.287V46.2617ZM830.422 45.2617V55.9941H832.422V45.2617H830.422ZM910.814 102V103H911.814V102H910.814ZM897.689 102H896.689V103H897.689V102ZM897.689 2.46875V1.46875H896.689V2.46875H897.689ZM910.814 2.46875H911.814V1.46875H910.814V2.46875ZM910.814 101H897.689V103H910.814V101ZM898.689 102V2.46875H896.689V102H898.689ZM897.689 3.46875H910.814V1.46875H897.689V3.46875ZM909.814 2.46875V102H911.814V2.46875H909.814ZM1053.37 102V103H1054.37V102H1053.37ZM1040.18 102L1039.34 102.547L1039.64 103H1040.18V102ZM990.07 25.3008L990.907 24.7539L989.07 21.9417V25.3008H990.07ZM990.07 102V103H991.07V102H990.07ZM976.877 102H975.877V103H976.877V102ZM976.877 2.46875V1.46875H975.877V2.46875H976.877ZM990.07 2.46875L990.908 1.92248L990.612 1.46875H990.07V2.46875ZM1040.31 79.5098L1039.48 80.056L1041.31 82.8737V79.5098H1040.31ZM1040.31 2.46875V1.46875H1039.31V2.46875H1040.31ZM1053.37 2.46875H1054.37V1.46875H1053.37V2.46875ZM1053.37 101H1040.18V103H1053.37V101ZM1041.01 101.453L990.907 24.7539L989.233 25.8477L1039.34 102.547L1041.01 101.453ZM989.07 25.3008V102H991.07V25.3008H989.07ZM990.07 101H976.877V103H990.07V101ZM977.877 102V2.46875H975.877V102H977.877ZM976.877 3.46875H990.07V1.46875H976.877V3.46875ZM989.233 3.01502L1039.48 80.056L1041.15 78.9635L990.908 1.92248L989.233 3.01502ZM1041.31 79.5098V2.46875H1039.31V79.5098H1041.31ZM1040.31 3.46875H1053.37V1.46875H1040.31V3.46875ZM1052.37 2.46875V102H1054.37V2.46875H1052.37ZM1192.17 88.9434L1192.99 89.5158L1193.17 89.2579V88.9434H1192.17ZM1178.02 99.8125L1178.38 100.743L1178.39 100.741L1178.02 99.8125ZM1135.36 97.6934L1134.84 98.5476L1134.85 98.5503L1135.36 97.6934ZM1120.73 81.4238L1119.83 81.8617L1119.84 81.8664L1120.73 81.4238ZM1115.47 57.0195L1114.47 57.0195L1114.47 57.0294L1115.47 57.0195ZM1125.93 13.4746L1125.17 12.8266L1125.16 12.829L1125.93 13.4746ZM1180.55 9.09961L1179.9 9.86467L1179.91 9.86738L1180.55 9.09961ZM1192.17 31.6582V32.6582H1193.32L1193.16 31.5148L1192.17 31.6582ZM1179.04 31.6582L1178.06 31.8419L1178.21 32.6582H1179.04V31.6582ZM1135.5 21.1992L1134.69 20.6068L1134.69 20.6079L1135.5 21.1992ZM1128.66 47.9961L1127.66 47.9922V47.9961H1128.66ZM1136.32 82.791L1135.53 83.4023L1135.53 83.405L1136.32 82.791ZM1179.11 85.457L1179.84 86.138L1180.11 85.8501V85.457H1179.11ZM1179.11 63.1035H1180.11V62.1035H1179.11V63.1035ZM1156.07 63.1035H1155.07V64.1035H1156.07V63.1035ZM1156.07 52.4395V51.4395H1155.07V52.4395H1156.07ZM1192.17 52.4395H1193.17V51.4395H1192.17V52.4395ZM1191.35 88.3709C1188.1 93.0244 1183.55 96.5324 1177.65 98.8835L1178.39 100.741C1184.61 98.2618 1189.49 94.5237 1192.99 89.5158L1191.35 88.3709ZM1177.65 98.8821C1171.78 101.196 1164.89 102.367 1156.96 102.367V104.367C1165.08 104.367 1172.23 103.168 1178.38 100.743L1177.65 98.8821ZM1156.96 102.367C1149.01 102.367 1141.99 100.516 1135.88 96.8364L1134.85 98.5503C1141.31 102.436 1148.69 104.367 1156.96 104.367V102.367ZM1135.88 96.8392C1129.76 93.116 1125.01 87.8405 1121.63 80.9813L1119.84 81.8664C1123.38 89.0436 1128.38 94.6144 1134.84 98.5476L1135.88 96.8392ZM1121.63 80.986C1118.29 74.1236 1116.56 66.1398 1116.47 57.0097L1114.47 57.0294C1114.56 66.4019 1116.34 74.6876 1119.83 81.8617L1121.63 80.986ZM1116.47 57.0195V48.3379H1114.47V57.0195H1116.47ZM1116.47 48.3379C1116.47 33.4896 1119.92 22.1292 1126.69 14.1202L1125.16 12.829C1117.99 21.3174 1114.47 33.1992 1114.47 48.3379H1116.47ZM1126.69 14.1226C1133.48 6.13609 1143.03 2.10156 1155.46 2.10156V0.101562C1142.55 0.101562 1132.41 4.31574 1125.17 12.8266L1126.69 14.1226ZM1155.46 2.10156C1165.68 2.10156 1173.79 4.71991 1179.9 9.86466L1181.19 8.33456C1174.63 2.81525 1166.02 0.101562 1155.46 0.101562V2.10156ZM1179.91 9.86738C1186.02 14.9662 1189.79 22.243 1191.18 31.8016L1193.16 31.5148C1191.72 21.5682 1187.75 13.8059 1181.19 8.33184L1179.91 9.86738ZM1192.17 30.6582H1179.04V32.6582H1192.17V30.6582ZM1180.03 31.4745C1178.77 24.7328 1176.11 19.5578 1171.96 16.0756C1167.82 12.5921 1162.3 10.9023 1155.53 10.9023V12.9023C1161.97 12.9023 1166.98 14.5052 1170.68 17.607C1174.37 20.7101 1176.86 25.4131 1178.06 31.8419L1180.03 31.4745ZM1155.53 10.9023C1146.47 10.9023 1139.47 14.1133 1134.69 20.6068L1136.3 21.7916C1140.64 15.8893 1147 12.9023 1155.53 12.9023V10.9023ZM1134.69 20.6079C1130 26.9999 1127.71 36.1748 1127.66 47.9922L1129.66 48C1129.71 36.393 1131.97 27.7032 1136.3 21.7906L1134.69 20.6079ZM1127.66 47.9961V56.1309H1129.66V47.9961H1127.66ZM1127.66 56.1309C1127.66 67.4432 1130.25 76.5683 1135.53 83.4023L1137.11 82.1797C1132.18 75.7976 1129.66 67.1493 1129.66 56.1309H1127.66ZM1135.53 83.405C1140.83 90.224 1148.04 93.6348 1157.03 93.6348V91.6348C1148.62 91.6348 1142.01 88.483 1137.11 82.1771L1135.53 83.405ZM1157.03 93.6348C1162.02 93.6348 1166.43 93.0804 1170.24 91.9529L1169.67 90.0353C1166.09 91.0954 1161.88 91.6348 1157.03 91.6348V93.6348ZM1170.24 91.9529C1174.08 90.8128 1177.3 88.8778 1179.84 86.138L1178.38 84.7761C1176.1 87.2316 1173.2 88.9879 1169.67 90.0353L1170.24 91.9529ZM1180.11 85.457V63.1035H1178.11V85.457H1180.11ZM1179.11 62.1035H1156.07V64.1035H1179.11V62.1035ZM1157.07 63.1035V52.4395H1155.07V63.1035H1157.07ZM1156.07 53.4395H1192.17V51.4395H1156.07V53.4395ZM1191.17 52.4395V88.9434H1193.17V52.4395H1191.17ZM1285.44 57.6348L1285.72 56.6742L1285.71 56.6737L1285.44 57.6348ZM1260.83 45.7402L1260.15 46.4731L1260.15 46.4793L1260.83 45.7402ZM1262.54 8.82617L1263.17 9.60038L1263.17 9.59988L1262.54 8.82617ZM1305.26 5.06641L1304.82 5.96236L1304.82 5.96385L1305.26 5.06641ZM1317.7 16.0039L1316.86 16.5354L1316.86 16.5413L1317.7 16.0039ZM1322.15 31.248V32.248H1323.15V31.248H1322.15ZM1308.95 31.248H1307.95V32.248H1308.95V31.248ZM1303.21 17.0977L1302.54 17.8392L1302.54 17.8436L1303.21 17.0977ZM1271.83 16.209L1272.45 16.9956L1272.45 16.9946L1271.83 16.209ZM1271.56 38.3574L1270.92 39.1282L1270.93 39.1328L1270.93 39.1373L1271.56 38.3574ZM1289.13 46.0137L1288.86 46.9762L1288.86 46.9766L1289.13 46.0137ZM1308.54 53.7383L1308.02 54.5929L1308.03 54.5987L1308.54 53.7383ZM1318.93 63.5137L1318.08 64.0266L1318.08 64.0343L1318.93 63.5137ZM1312.92 96.1211L1313.53 96.9142L1313.53 96.9114L1312.92 96.1211ZM1268.55 99.4707L1268.15 100.384L1268.15 100.387L1268.55 99.4707ZM1254.81 88.6699L1253.99 89.2434L1254 89.2488L1254.81 88.6699ZM1250.03 73.1523V72.1523H1249.03V73.1523H1250.03ZM1263.22 73.1523H1264.22V72.1523H1263.22V73.1523ZM1269.85 87.4395L1269.23 88.2227L1269.24 88.2297L1269.85 87.4395ZM1304.03 65.5645L1303.41 66.3504L1303.42 66.3555L1304.03 65.5645ZM1285.71 56.6737C1274.52 53.4552 1266.49 49.5439 1261.5 45.0012L1260.15 46.4793C1265.47 51.3246 1273.84 55.343 1285.16 58.5958L1285.71 56.6737ZM1261.51 45.0074C1256.61 40.4559 1254.17 34.8875 1254.17 28.2402H1252.17C1252.17 35.4471 1254.84 41.5454 1260.15 46.473L1261.51 45.0074ZM1254.17 28.2402C1254.17 20.7116 1257.15 14.521 1263.17 9.60038L1261.9 8.05196C1255.44 13.3397 1252.17 20.0918 1252.17 28.2402H1254.17ZM1263.17 9.59988C1269.24 4.62819 1277.16 2.10156 1287.01 2.10156V0.101562C1276.81 0.101562 1268.41 2.72467 1261.9 8.05246L1263.17 9.59988ZM1287.01 2.10156C1293.71 2.10156 1299.64 3.39708 1304.82 5.96236L1305.71 4.17045C1300.22 1.44927 1293.98 0.101562 1287.01 0.101562V2.10156ZM1304.82 5.96385C1310.05 8.53296 1314.05 12.0586 1316.86 16.5354L1318.55 15.4724C1315.53 10.6523 1311.23 6.88631 1305.7 4.16896L1304.82 5.96385ZM1316.86 16.5413C1319.72 21.0291 1321.15 25.924 1321.15 31.248H1323.15C1323.15 25.5434 1321.61 20.2756 1318.55 15.4665L1316.86 16.5413ZM1322.15 30.248H1308.95V32.248H1322.15V30.248ZM1309.95 31.248C1309.95 25.0014 1307.95 19.9926 1303.88 16.3517L1302.54 17.8436C1306.12 21.0387 1307.95 25.4634 1307.95 31.248H1309.95ZM1303.88 16.3561C1299.81 12.6753 1294.14 10.9023 1287.01 10.9023V12.9023C1293.82 12.9023 1298.95 14.5929 1302.54 17.8392L1303.88 16.3561ZM1287.01 10.9023C1280.4 10.9023 1275.1 12.3677 1271.22 15.4233L1272.45 16.9946C1275.86 14.308 1280.68 12.9023 1287.01 12.9023V10.9023ZM1271.22 15.4223C1267.35 18.4591 1265.43 22.7065 1265.43 28.0352H1267.43C1267.43 23.2467 1269.12 19.6099 1272.45 16.9956L1271.22 15.4223ZM1265.43 28.0352C1265.43 32.4196 1267.3 36.1328 1270.92 39.1282L1272.2 37.5867C1268.99 34.931 1267.43 31.7627 1267.43 28.0352H1265.43ZM1270.93 39.1373C1274.56 42.0475 1280.58 44.6431 1288.86 46.9762L1289.4 45.0512C1281.18 42.7358 1275.49 40.2272 1272.19 37.5776L1270.93 39.1373ZM1288.86 46.9766C1297.11 49.2887 1303.48 51.8338 1308.02 54.5928L1309.06 52.8838C1304.3 49.9917 1297.74 47.387 1289.4 45.0508L1288.86 46.9766ZM1308.03 54.5987C1312.62 57.3148 1315.95 60.4645 1318.08 64.0266L1319.79 63.0007C1317.45 59.0889 1313.85 55.7216 1309.05 52.8779L1308.03 54.5987ZM1318.08 64.0343C1320.25 67.5913 1321.35 71.803 1321.35 76.707H1323.35C1323.35 71.4939 1322.18 66.91 1319.79 62.9931L1318.08 64.0343ZM1321.35 76.707C1321.35 84.4693 1318.35 90.6469 1312.31 95.3308L1313.53 96.9114C1320.07 91.8427 1323.35 85.0776 1323.35 76.707H1321.35ZM1312.31 95.328C1306.24 99.9865 1298.07 102.367 1287.69 102.367V104.367C1298.37 104.367 1307.01 101.917 1313.53 96.9141L1312.31 95.328ZM1287.69 102.367C1280.99 102.367 1274.75 101.094 1268.95 98.5549L1268.15 100.387C1274.21 103.043 1280.73 104.367 1287.69 104.367V102.367ZM1268.96 98.5575C1263.17 95.9753 1258.74 92.4803 1255.63 88.091L1254 89.2488C1257.35 93.9741 1262.08 97.6797 1268.15 100.384L1268.96 98.5575ZM1255.63 88.0965C1252.56 83.7143 1251.03 78.7437 1251.03 73.1523H1249.03C1249.03 79.1365 1250.68 84.5109 1253.99 89.2434L1255.63 88.0965ZM1250.03 74.1523H1263.22V72.1523H1250.03V74.1523ZM1262.22 73.1523C1262.22 79.4499 1264.55 84.5099 1269.23 88.2227L1270.47 86.6562C1266.31 83.3508 1264.22 78.886 1264.22 73.1523H1262.22ZM1269.24 88.2297C1273.93 91.8666 1280.11 93.6348 1287.69 93.6348V91.6348C1280.42 91.6348 1274.71 89.9394 1270.46 86.6492L1269.24 88.2297ZM1287.69 93.6348C1294.74 93.6348 1300.3 92.201 1304.23 89.1906L1303.01 87.6024C1299.56 90.243 1294.5 91.6348 1287.69 91.6348V93.6348ZM1304.23 89.1906C1308.18 86.1653 1310.16 82.0136 1310.16 76.8438H1308.16C1308.16 81.4265 1306.44 84.9766 1303.01 87.6024L1304.23 89.1906ZM1310.16 76.8438C1310.16 71.7032 1308.34 67.6321 1304.64 64.7734L1303.42 66.3555C1306.56 68.7832 1308.16 72.2317 1308.16 76.8438H1310.16ZM1304.65 64.7785C1301.07 61.9614 1294.71 59.2759 1285.72 56.6742L1285.16 58.5954C1294.12 61.1889 1300.16 63.7899 1303.41 66.3504L1304.65 64.7785Z" fill="#FBAC6A" fill-opacity="0.69"/>
</svg>
